# xmcd
# 
# Track frame offsets:
#   150
#   17002
#   37822
#   50655
#   63664
#   79520
#   98287
#   113402
#   127205
#   141560
#   157565
#   173884
#   190680
#   207259
#   228457
# 
# Disc length: 3240 seconds
# 
# Revision: 1
# Processed by: cddbd v1.5.1PL0 Copyright (c) Steve Scherf et al.
# Submitted via: Synapstar 1.0 
# 
DISCID=bb0ca60f
DTITLE=Various Artist - Country Hits - Vol.72
DYEAR=1900
DGENRE=Country
TTITLE0=David Kersh - Goodnight Sweetheart
TTITLE1=Deanna Carter - Strawberry Wine
TTITLE2=Marty Haggard - In the Afterlife
TTITLE3=Gary Allen - Her Man
TTITLE4=Sammy Kershaw - Vidalia
TTITLE5=Thresher Shiver - Goin', Goin', Gone
TTITLE6=Mandy Barnett - A Simple I Love You
TTITLE7=Mila Mason - That's Enough of That
TTITLE8=Hank Williams, Jr. - Don Juan D'Bubba
TTITLE9=Trail of Tears - Thanks to You
TTITLE10=Billy Ray Cyrus - Trail of Tears
TTITLE11=Great Plains - Healin' Hands
TTITLE12=Martina McBride - Swingin' Doors
TTITLE13=Patty Loveless - Lonely Too Long
TTITLE14=Trace Adkins - Every Light in the House Is On
EXTD=
EXTT0=
EXTT1=
EXTT2=
EXTT3=
EXTT4=
EXTT5=
EXTT6=
EXTT7=
EXTT8=
EXTT9=
EXTT10=
EXTT11=
EXTT12=
EXTT13=
EXTT14=
PLAYORDER=
